<svg xmlns="http://www.w3.org/2000/svg" viewBox="0 0 1280 720" width="1280" height="720">
  <rect x="0" y="0" width="1280" height="720" fill="#F8FAFC" />
  <g id="header">
    <text x="56" y="70" font-family="Microsoft YaHei, Arial, sans-serif" font-size="34" font-weight="800" fill="#0B1F3A">本地小样验证通过，但不包装成最终性能结论</text>
    <text x="56" y="108" font-family="Microsoft YaHei, Arial, sans-serif" font-size="16" fill="#475569">这里展示的是工程可运行性与数据管线验证；真正算法优劣需要服务器全量对比。</text>
  </g>
  <g id="kpi-1">
    <path fill="#FFFFFF" stroke="#CBD5E1" stroke-width="1.5" d="M64,166 H318 A8,8 0 0 1 326,174 V328 A8,8 0 0 1 318,336 H64 A8,8 0 0 1 56,328 V174 A8,8 0 0 1 64,166 Z" />
    
  <g transform="translate(86.0, 196.0) scale(1.4166666666666667)" fill="none" stroke="#14B8A6" stroke-width="2">
    <path d="M11.46 20.846a12 12 0 0 1 -7.96 -14.846a12 12 0 0 0 8.5 -3a12 12 0 0 0 8.5 3a12 12 0 0 1 -.09 7.06" />
    <path d="M15 19l2 2l4 -4" />
  </g>
    <text x="86" y="264" font-family="Microsoft YaHei, Arial, sans-serif" font-size="42" font-weight="800" fill="#14B8A6">0</text>
    <text x="134" y="264" font-family="Microsoft YaHei, Arial, sans-serif" font-size="18" font-weight="700" fill="#111827">非法动作</text>
    <text x="86" y="302" font-family="Microsoft YaHei, Arial, sans-serif" font-size="15" fill="#475569">150 步随机合法动作无 KeyError</text>
  </g>
  <g id="kpi-2">
    <path fill="#FFFFFF" stroke="#CBD5E1" stroke-width="1.5" d="M364,166 H618 A8,8 0 0 1 626,174 V328 A8,8 0 0 1 618,336 H364 A8,8 0 0 1 356,328 V174 A8,8 0 0 1 364,166 Z" />
    
  <g transform="translate(386.0, 196.0) scale(1.4166666666666667)" fill="none" stroke="#2563EB" stroke-width="2">
    <path d="M5 6a1 1 0 0 1 1 -1h12a1 1 0 0 1 1 1v12a1 1 0 0 1 -1 1h-12a1 1 0 0 1 -1 -1l0 -12" />
    <path d="M9 9h6v6h-6l0 -6" />
    <path d="M3 10h2" />
    <path d="M3 14h2" />
    <path d="M10 3v2" />
    <path d="M14 3v2" />
    <path d="M21 10h-2" />
    <path d="M21 14h-2" />
    <path d="M14 21v-2" />
    <path d="M10 21v-2" />
  </g>
    <text x="386" y="264" font-family="Microsoft YaHei, Arial, sans-serif" font-size="42" font-weight="800" fill="#2563EB">900</text>
    <text x="494" y="264" font-family="Microsoft YaHei, Arial, sans-serif" font-size="18" font-weight="700" fill="#111827">env steps</text>
    <text x="386" y="302" font-family="Microsoft YaHei, Arial, sans-serif" font-size="15" fill="#475569">CDQN 端到端训练可运行</text>
  </g>
  <g id="kpi-3">
    <path fill="#FFFFFF" stroke="#CBD5E1" stroke-width="1.5" d="M664,166 H918 A8,8 0 0 1 926,174 V328 A8,8 0 0 1 918,336 H664 A8,8 0 0 1 656,328 V174 A8,8 0 0 1 664,166 Z" />
    
  <g transform="translate(686.0, 196.0) scale(1.4166666666666667)" fill="none" stroke="#2563EB" stroke-width="2">
    <path d="M4 19l16 0" />
    <path d="M4 15l4 -6l4 2l4 -5l4 4" />
  </g>
    <text x="686" y="264" font-family="Microsoft YaHei, Arial, sans-serif" font-size="36" font-weight="800" fill="#2563EB">0.028→0.017</text>
    <text x="686" y="302" font-family="Microsoft YaHei, Arial, sans-serif" font-size="15" fill="#475569">小样 loss 下降，仅说明训练闭环正常</text>
  </g>
  <g id="kpi-4">
    <path fill="#FFFFFF" stroke="#CBD5E1" stroke-width="1.5" d="M964,166 H1216 A8,8 0 0 1 1224,174 V328 A8,8 0 0 1 1216,336 H964 A8,8 0 0 1 956,328 V174 A8,8 0 0 1 964,166 Z" />
    
  <g transform="translate(986.0, 196.0) scale(1.4166666666666667)" fill="none" stroke="#14B8A6" stroke-width="2">
    <path d="M3.5 5.5l1.5 1.5l2.5 -2.5" />
    <path d="M3.5 11.5l1.5 1.5l2.5 -2.5" />
    <path d="M3.5 17.5l1.5 1.5l2.5 -2.5" />
    <path d="M11 6l9 0" />
    <path d="M11 12l9 0" />
    <path d="M11 18l9 0" />
  </g>
    <text x="986" y="264" font-family="Microsoft YaHei, Arial, sans-serif" font-size="42" font-weight="800" fill="#14B8A6">CSV</text>
    <text x="1082" y="264" font-family="Microsoft YaHei, Arial, sans-serif" font-size="18" font-weight="700" fill="#111827">对齐</text>
    <text x="986" y="302" font-family="Microsoft YaHei, Arial, sans-serif" font-size="15" fill="#475569">QMIX 与 CDQN 指标格式一致</text>
  </g>
  <g id="chart-review">
    <path fill="#FFE4E6" stroke="#E11D48" stroke-width="1.4" d="M104,392 H1176 A8,8 0 0 1 1184,400 V534 A8,8 0 0 1 1176,542 H104 A8,8 0 0 1 96,534 V400 A8,8 0 0 1 104,392 Z" />
    
  <g transform="translate(126.0, 430.0) scale(1.4166666666666667)" fill="none" stroke="#E11D48" stroke-width="2">
    <path d="M12 9v4" />
    <path d="M10.363 3.591l-8.106 13.534a1.914 1.914 0 0 0 1.636 2.871h16.214a1.914 1.914 0 0 0 1.636 -2.87l-8.106 -13.536a1.914 1.914 0 0 0 -3.274 0" />
    <path d="M12 16h.01" />
  </g>
    <text x="178" y="434" font-family="Microsoft YaHei, Arial, sans-serif" font-size="22" font-weight="800" fill="#0B1F3A">图表审查结论</text>
    <text font-family="Microsoft YaHei, Arial, sans-serif" font-size="18" fill="#111827" x="178" y="474">已有 compare_curves.png 只有极少评估点，属于 smoke / sanity 产物。</text><text font-family="Microsoft YaHei, Arial, sans-serif" font-size="18" fill="#111827" x="178" y="506">本 PPT 不把它作为正式性能图展示；结果页保留可替换位置，等待服务器全量实验回填。</text></g>
  <g id="commands">
    <path fill="#0B1F3A" d="M164,574 H1116 A8,8 0 0 1 1124,582 V622 A8,8 0 0 1 1116,630 H164 A8,8 0 0 1 156,622 V582 A8,8 0 0 1 164,574 Z" />
    <text x="186" y="609" font-family="Consolas, Courier New, monospace" font-size="17" fill="#DBEAFE">python main.py --alg cascade_dqn --reward_norm --cli_total_env_steps 900</text>
  </g>
  <g id="footer">
    <text x="56" y="682" font-family="Microsoft YaHei, Arial, sans-serif" font-size="14" fill="#94A3B8">Verified locally: smoke test, CDQN e2e sanity, QMIX eval logging, analyze_compare output.</text>
    <text x="1224" y="682" font-family="Microsoft YaHei, Arial, sans-serif" font-size="14" fill="#94A3B8" text-anchor="end">08 / 10</text>
  </g>
</svg>